<svg width="240" height="160" viewBox="0 0 240 160" fill="none" xmlns="http://www.w3.org/2000/svg">
<g clip-path="url(#clip0)">
<path d="M73.6741 149.786C75.2979 146.191 76.9205 142.542 77.6252 138.647C78.3299 134.751 78.0341 130.524 76.0158 127.145C73.9975 123.766 70.0234 121.475 66.2309 122.239C63.116 122.866 60.6149 125.381 59.1504 128.268C57.6859 131.155 57.0983 134.411 56.5287 137.612C56.3446 133.976 56.1497 130.28 54.9711 126.845C53.7926 123.41 51.4718 120.208 48.1644 118.879C44.8569 117.549 40.5543 118.595 38.8111 121.768C36.3552 126.238 39.6117 132.509 36.7877 136.745C36.3033 132.496 31.9687 129.139 27.849 129.822C23.7293 130.505 20.6486 135.092 21.4961 139.281C22.0004 141.773 23.6593 143.893 25.6427 145.425C27.6261 146.956 29.9329 148.731 32.2148 149.735L73.6741 149.786Z" fill="#F9818A"/>
<path d="M23.6591 132.824C26.9315 133.996 30.234 135.182 33.2216 137.015C35.8992 138.658 38.2835 140.87 39.7894 143.703C40.6144 145.223 41.1043 146.909 41.2244 148.644C41.2462 149.007 41.8 149.009 41.7781 148.644C41.5845 145.413 40.0485 142.457 37.9217 140.119C35.5899 137.555 32.5681 135.805 29.4483 134.446C27.5985 133.641 25.7027 132.956 23.8063 132.277C23.4693 132.156 23.3244 132.704 23.6591 132.824H23.6591Z" fill="white"/>
<path d="M42.5348 119.442C44.5453 122.875 46.1553 126.539 47.3317 130.358C48.5104 134.175 49.2529 138.119 49.5442 142.112C49.7055 144.347 49.7231 146.591 49.5969 148.828C49.5764 149.193 50.1301 149.192 50.1505 148.828C50.3739 144.794 50.1357 140.747 49.4408 136.77C48.7471 132.793 47.6069 128.912 46.0429 125.204C45.1651 123.121 44.1528 121.1 43.0128 119.156C42.9745 119.093 42.914 119.049 42.8443 119.031C42.7745 119.014 42.7008 119.025 42.6388 119.062C42.5768 119.099 42.5313 119.16 42.5119 119.231C42.4925 119.301 42.5007 119.377 42.5348 119.442Z" fill="white"/>
<path d="M69.6307 122.702C66.7868 129.251 64.7855 136.152 63.6771 143.231C63.3659 145.219 63.125 147.217 62.9544 149.225C62.9234 149.589 63.4772 149.586 63.508 149.225C64.1108 142.162 65.6 135.209 67.9386 128.537C68.5957 126.661 69.3191 124.811 70.1087 122.988C70.252 122.657 69.7751 122.368 69.6307 122.702Z" fill="white"/>
<path d="M77.9317 138.894C67.4903 138.894 59.0259 130.858 59.0259 120.947C59.0259 111.035 67.4903 103 77.9317 103C88.3731 103 96.8375 111.035 96.8375 120.947C96.8375 130.858 88.3731 138.894 77.9317 138.894Z" fill="#131415"/>
<path d="M91.3991 143.051L96.6233 140.785L91.9334 130.359L86.7092 132.625L91.3991 143.051Z" fill="#131415"/>
<path d="M76.2617 137.156L81.4858 134.891L85.7621 143.776L80.538 146.041L76.2617 137.156Z" fill="#131415"/>
<path d="M79.7335 150.012C78.926 149.466 79.5141 147.367 81.047 145.322C82.58 143.278 84.4774 142.063 85.285 142.609C86.0925 143.155 85.5045 145.254 83.9715 147.299C82.4385 149.343 80.5411 150.558 79.7335 150.012Z" fill="#131415"/>
<path d="M90.3741 147.114C89.5663 146.569 90.1549 144.47 91.6887 142.426C93.2226 140.383 95.1209 139.168 95.9287 139.714C96.7365 140.259 96.1479 142.358 94.614 144.402C93.0802 146.445 91.1819 147.66 90.3741 147.114Z" fill="#131415"/>
<path d="M75.5078 123.137C71.9392 123.137 69.0463 120.391 69.0463 117.003C69.0463 113.615 71.9392 110.869 75.5078 110.869C79.0763 110.869 81.9692 113.615 81.9692 117.003C81.9692 120.391 79.0763 123.137 75.5078 123.137Z" fill="white"/>
<path d="M77.8398 116.292C76.6503 116.292 75.686 115.376 75.686 114.247C75.686 113.118 76.6503 112.202 77.8398 112.202C79.0294 112.202 79.9937 113.118 79.9937 114.247C79.9937 115.376 79.0294 116.292 77.8398 116.292Z" fill="#131415"/>
<path d="M50.7151 122.086C50.6756 120.531 54.8744 119.173 60.0936 119.053C65.3128 118.934 69.5758 120.098 69.6154 121.653C69.6549 123.208 65.456 124.566 60.2369 124.686C55.0177 124.805 50.7547 123.641 50.7151 122.086Z" fill="#131415"/>
<path d="M84.8032 126.583C85.278 127.57 85.3205 128.695 84.9214 129.711C84.5223 130.727 83.7143 131.551 82.6752 132.002C81.636 132.453 80.4508 132.493 79.3804 132.114C78.3099 131.735 77.4417 130.968 76.967 129.982C75.9784 127.928 77.5278 126.742 79.6917 125.803C81.8556 124.865 83.8146 124.529 84.8032 126.583Z" fill="white"/>
<path d="M167.817 157.516L167.772 153.993L151.569 154.207L151.614 157.731L167.817 157.516Z" fill="#3A3B3D"/>
<path d="M173.574 158.302L171.261 158.295L169.83 155.679L171.376 153.072L173.526 153.078C172.988 152.376 172.248 151.864 171.412 151.615C170.575 151.365 169.684 151.39 168.862 151.686C168.04 151.982 167.329 152.534 166.828 153.265C166.328 153.996 166.063 154.87 166.072 155.763C166.08 156.656 166.361 157.524 166.874 158.245C167.388 158.966 168.109 159.504 168.937 159.784C169.764 160.064 170.656 160.072 171.488 159.806C172.319 159.54 173.049 159.014 173.574 158.302V158.302Z" fill="#3A3B3D"/>
<path d="M145.812 158.302L148.125 158.295L149.556 155.679L148.01 153.072L145.86 153.078C146.398 152.376 147.138 151.864 147.974 151.615C148.811 151.365 149.702 151.39 150.524 151.686C151.346 151.982 152.057 152.534 152.558 153.265C153.058 153.996 153.323 154.87 153.314 155.763C153.306 156.656 153.025 157.524 152.512 158.245C151.998 158.966 151.277 159.504 150.449 159.784C149.622 160.064 148.73 160.072 147.898 159.806C147.067 159.54 146.337 159.014 145.812 158.302V158.302Z" fill="#3A3B3D"/>
<path d="M239.652 150.092H0.347826C0.255577 150.092 0.167106 150.054 0.101876 149.987C0.0366456 149.921 0 149.83 0 149.735C0 149.641 0.0366456 149.55 0.101876 149.483C0.167106 149.416 0.255577 149.379 0.347826 149.379H239.652C239.744 149.379 239.833 149.416 239.898 149.483C239.963 149.55 240 149.641 240 149.735C240 149.83 239.963 149.921 239.898 149.987C239.833 150.054 239.744 150.092 239.652 150.092Z" fill="#3A3B3D"/>
<path d="M187.995 82.3494C194.335 82.3494 199.474 77.0817 199.474 70.5836C199.474 64.0856 194.335 58.8179 187.995 58.8179C181.656 58.8179 176.517 64.0856 176.517 70.5836C176.517 77.0817 181.656 82.3494 187.995 82.3494Z" fill="#131415"/>
<path d="M192.647 136.635L193.531 140.911L210.042 139.451L208.737 133.14L192.647 136.635Z" fill="#FFB8B8"/>
<path d="M191.362 149.999L188.584 136.56L193.649 135.46L195.354 143.706C195.639 145.084 195.378 146.52 194.629 147.7C193.881 148.881 192.705 149.707 191.362 149.999L191.362 149.999Z" fill="#131415"/>
<path d="M182.303 136.407L180.444 140.341L164.756 134.866L167.499 129.06L182.303 136.407Z" fill="#FFB8B8"/>
<path d="M178.02 142.607L181.604 135.019L186.265 137.332L180.424 149.697C179.812 149.393 179.265 148.969 178.813 148.448C178.361 147.928 178.013 147.321 177.79 146.662C177.567 146.004 177.472 145.307 177.512 144.611C177.551 143.915 177.724 143.234 178.02 142.607Z" fill="#131415"/>
<path d="M151.394 128.637C151.932 128.739 152.484 128.72 153.013 128.58C153.542 128.44 154.034 128.183 154.456 127.826C154.877 127.47 155.217 127.023 155.452 126.518C155.687 126.012 155.811 125.46 155.815 124.9L181.684 100.452L175.26 95.3514L151.838 121.002C150.92 121.057 150.053 121.456 149.403 122.122C148.752 122.789 148.363 123.676 148.308 124.617C148.253 125.558 148.537 126.487 149.106 127.228C149.675 127.969 150.489 128.47 151.394 128.637H151.394Z" fill="#FFB8B8"/>
<path d="M186.555 82.8807C191.273 82.8807 195.098 78.9601 195.098 74.1238C195.098 69.2874 191.273 65.3668 186.555 65.3668C181.836 65.3668 178.012 69.2874 178.012 74.1238C178.012 78.9601 181.836 82.8807 186.555 82.8807Z" fill="#FFB8B8"/>
<path d="M194.221 125.599C188.229 125.599 181.012 124.305 176.559 119.011L176.459 118.892L176.562 118.775C176.596 118.737 179.871 114.9 176.601 108.057L172.104 109.475L167.627 103.418L170.107 95.7919L180.256 87.4118C181.71 86.2178 183.48 85.4987 185.338 85.3478C188.699 85.0147 191.974 84.0587 195.002 82.5265C196.388 81.8365 197.914 81.4945 199.454 81.5288L199.654 81.5345C200.122 81.5481 200.583 81.659 201.008 81.8605C201.434 82.062 201.815 82.35 202.128 82.707C202.442 83.0639 202.681 83.4825 202.832 83.9372C202.983 84.3918 203.043 84.8732 203.007 85.3522C202.319 94.4902 201.104 116.565 204.674 124.165L204.766 124.362L204.56 124.415C201.167 125.198 197.699 125.595 194.221 125.599Z" fill="#DB4F59"/>
<path d="M177.734 118.895C177.734 118.895 155.126 116.755 152.691 123.53C150.256 130.304 153.039 133.513 157.213 134.939C161.386 136.365 171.473 138.148 171.473 138.148L175.995 132.443L187.821 133.156C187.821 133.156 200.999 140.99 204.642 149.369C205.424 151.183 206.67 152.745 208.249 153.89C209.828 155.035 211.68 155.72 213.608 155.872C216.529 156.081 219.126 154.95 219.126 150.27C219.126 139.574 204.517 124.243 204.517 124.243L177.734 118.895Z" fill="#131415"/>
<path d="M160.517 129.413C160.517 129.413 166.43 127.63 175.821 132.265L160.517 129.413Z" fill="#131415"/>
<path d="M178.032 68.5393C181.369 70.6269 185.13 71.8973 189.023 72.2515L187.865 70.8286C188.708 71.1483 189.596 71.3289 190.495 71.3639C190.945 71.3772 191.392 71.2823 191.799 71.0867C192.207 70.8911 192.564 70.6003 192.842 70.2375C193.07 69.8608 193.205 69.4334 193.236 68.9917C193.267 68.55 193.194 68.1071 193.022 67.7007C192.669 66.8903 192.119 66.1859 191.425 65.6547C190.196 64.6577 188.745 63.988 187.201 63.7052C185.658 63.4225 184.07 63.5355 182.58 64.0343C181.558 64.3475 180.642 64.9495 179.938 65.7714C179.592 66.1854 179.352 66.6811 179.239 67.2138C179.126 67.7465 179.143 68.2997 179.29 68.8237" fill="#131415"/>
<path d="M187.934 61.5399C189.452 57.9272 191.724 54.6995 194.59 52.084C196.431 50.4073 198.58 48.9667 201.006 48.5319C203.432 48.0971 206.165 48.842 207.653 50.8534C208.87 52.4981 209.097 54.7014 208.963 56.7609C208.829 58.8203 208.38 60.8598 208.423 62.9234C208.467 65.0289 209.023 67.0899 210.041 68.9192C211.059 70.7485 212.507 72.2883 214.253 73.3986C215.999 74.509 217.987 75.1548 220.038 75.2775C222.089 75.4002 224.138 74.9959 225.998 74.1012C223.903 75.2881 222.271 77.1667 220.327 78.5965C218.382 80.0263 215.818 81.0067 213.609 80.0619C211.273 79.0623 210.201 76.347 209.364 73.8974L205.631 62.9732C204.996 61.1162 204.33 59.2041 203.035 57.7516C201.741 56.2991 199.639 55.4138 197.857 56.1441C196.506 56.6975 195.626 58.0186 194.855 59.283C194.083 60.5475 193.27 61.8928 191.967 62.5558C190.663 63.2188 188.732 62.8106 188.306 61.3847" fill="#131415"/>
<path d="M187.696 114.517L185.297 117.041L196.903 128.633L199.301 126.11L187.696 114.517Z" fill="#E6E6E8"/>
<path d="M197.047 126.318C196.572 126.817 196.253 127.449 196.129 128.134C196.005 128.819 196.082 129.527 196.35 130.167C196.619 130.807 197.066 131.352 197.636 131.731C198.206 132.111 198.873 132.309 199.553 132.3C200.233 132.291 200.895 132.075 201.455 131.681C202.016 131.286 202.449 130.73 202.701 130.083C202.953 129.436 203.012 128.726 202.871 128.045C202.73 127.363 202.395 126.74 201.908 126.253C201.255 125.601 200.376 125.242 199.464 125.254C198.553 125.266 197.683 125.648 197.047 126.318ZM200.564 129.831C200.36 130.044 200.1 130.192 199.815 130.254C199.53 130.316 199.233 130.29 198.963 130.179C198.692 130.068 198.46 129.878 198.295 129.632C198.13 129.386 198.04 129.095 198.036 128.796C198.032 128.498 198.115 128.205 198.273 127.954C198.432 127.704 198.66 127.507 198.927 127.389C199.195 127.271 199.491 127.238 199.777 127.292C200.064 127.346 200.328 127.487 200.537 127.695C200.817 127.975 200.977 128.357 200.982 128.757C200.987 129.158 200.836 129.544 200.564 129.831Z" fill="#E6E6E8"/>
<path d="M184.167 109.788L185.798 111.47L185.005 114.357L182.113 115.08L180.598 113.517C180.494 114.404 180.664 115.302 181.083 116.084C181.502 116.867 182.15 117.496 182.935 117.882C183.721 118.269 184.605 118.394 185.463 118.239C186.321 118.085 187.11 117.659 187.721 117.022C188.331 116.384 188.731 115.567 188.865 114.685C188.999 113.803 188.861 112.899 188.469 112.102C188.077 111.304 187.452 110.652 186.68 110.237C185.909 109.822 185.03 109.665 184.167 109.788Z" fill="#E6E6E8"/>
<path d="M190.865 125.63C190.717 125.629 190.57 125.621 190.424 125.604C189.565 125.502 188.765 125.106 188.154 124.479C187.543 123.853 187.156 123.033 187.057 122.153C186.995 121.604 187.048 121.048 187.211 120.521C187.375 119.994 187.645 119.509 188.003 119.096C188.362 118.684 188.802 118.354 189.294 118.128C189.786 117.902 190.319 117.785 190.859 117.785C191.029 117.786 191.2 117.799 191.369 117.824L203.048 105.08L201.829 100.914L207.952 98.1L209.669 102.4C210.244 103.856 210.345 105.464 209.958 106.985C209.571 108.505 208.716 109.857 207.52 110.84L194.664 121.322C194.677 121.45 194.684 121.579 194.685 121.707C194.684 122.259 194.571 122.804 194.351 123.307C194.132 123.811 193.811 124.261 193.41 124.63C192.713 125.276 191.805 125.632 190.865 125.63Z" fill="#FFB8B8"/>
<path d="M199.995 83.2408C200.4 83.0563 200.837 82.9577 201.28 82.9507C201.724 82.9438 202.163 83.0287 202.574 83.2004C202.984 83.3721 203.356 83.6271 203.668 83.9499C203.98 84.2728 204.224 84.6569 204.388 85.0792L210.43 100.711L201.039 107.129L199.995 83.2408Z" fill="#DB4F59"/>
<path d="M98.512 127.27L96.1812 142.835C96.1812 142.835 84.7068 149.211 92.7748 149.399C100.843 149.586 138.852 149.399 138.852 149.399C138.852 149.399 146.203 149.399 134.549 142.647L132.218 126.332L98.512 127.27Z" fill="#757678"/>
<path opacity="0.1" d="M91.1518 149.23C92.9842 147.524 96.1813 145.747 96.1813 145.747L98.5121 130.182L132.218 130.215L134.549 145.56C137.267 147.134 138.95 148.341 139.935 149.267C141.432 148.91 143.067 147.582 134.549 142.647L132.218 126.332L98.5121 127.27L96.1814 142.835C96.1814 142.835 86.5394 148.193 91.1518 149.23Z" fill="#131415"/>
<path d="M141.606 18.8782H89.6183C88.5325 18.8782 87.6522 21.3749 87.6522 24.4548V123.785C87.6522 126.865 88.5325 129.362 89.6183 129.362H141.606C142.692 129.362 143.572 126.865 143.572 123.785V24.4548C143.572 21.3749 142.692 18.8782 141.606 18.8782Z" fill="#757678"/>
<path d="M138.542 24.7582H92.9778V107.698H138.542V24.7582Z" fill="#E6E6E8"/>
</g>
<defs>
<clipPath id="clip0">
<rect width="240" height="160" fill="white"/>
</clipPath>
</defs>
</svg>
